<svg width="43" height="40" viewBox="0 0 43 40" fill="none" xmlns="http://www.w3.org/2000/svg">
<g clip-path="url(#clip0_537_26073)">
<path d="M25.73 18.79L22.8 19.08C23.6931 17.1778 24.1541 15.1015 24.15 13C24.15 6.34 19.72 1.16004 14.32 1.42004L0 2.10004V21.35L2.94 21.06V39.82H19.2C24.63 39.82 29.09 34.41 29.09 27.7401C29.1449 24.4417 27.9437 21.2458 25.73 18.8V18.79ZM9.49002 10.52L11.89 10.4301C12.2408 10.4564 12.5827 10.5524 12.8958 10.7128C13.2089 10.8731 13.4868 11.0944 13.7132 11.3636C13.9396 11.6329 14.1099 11.9446 14.2141 12.2806C14.3183 12.6165 14.3543 12.9699 14.32 13.32C14.3676 14.0343 14.1437 14.7402 13.6931 15.2964C13.2426 15.8527 12.5986 16.2182 11.89 16.32L9.49002 16.39V10.52ZM16.77 30.89L12.43 30.94V25.02L16.77 24.94C17.123 24.9726 17.466 25.0747 17.7794 25.2402C18.0928 25.4058 18.3703 25.6317 18.5962 25.9049C18.822 26.1781 18.9916 26.4933 19.0952 26.8322C19.1988 27.1712 19.2345 27.5272 19.2 27.88C19.2651 28.599 19.0479 29.3152 18.5944 29.877C18.1409 30.4388 17.4866 30.8021 16.77 30.89ZM42.58 17.09L41.7 28.09L32.14 28.19L31.8 18.19L28.8 18.4901L28.19 0.720032L41.19 0.0200195L39.79 17.38L42.58 17.09Z" fill="white"/>
<path d="M32.54 39.9301L40.73 40.0001L41.45 31.0601L32.24 31.1101L32.54 39.9301Z" fill="#FF0000"/>
</g>
<defs>
<clipPath id="clip0_537_26073">
<rect width="42.58" height="40" fill="white"/>
</clipPath>
</defs>
</svg>
